<?xml version="1.0" encoding="UTF-8"?>
<svg id="Layer_2" data-name="Layer 2" xmlns="http://www.w3.org/2000/svg" viewBox="0 0 1039.54 651.82">
  <defs>
    <style>
      .cls-1 {
        font-size: 56.16px;
      }

      .cls-1, .cls-2, .cls-3 {
        fill: #231f20;
        font-family: Marydale-Bold, Marydale;
        font-weight: 700;
      }

      .cls-2 {
        font-size: 40.11px;
      }

      .cls-3 {
        font-size: 106.97px;
      }
    </style>
  </defs>
  <g id="Layer_1-2" data-name="Layer 1">
    <text class="cls-3" transform="translate(101.44 542.8) rotate(-57.05) scale(1.12 1)"><tspan x="0" y="0">7</tspan></text>
    <text class="cls-3" transform="translate(134.5 490.32) rotate(-40.62) scale(1.12 1)"><tspan x="0" y="0">4</tspan></text>
    <text class="cls-1" transform="translate(184.26 449.59) rotate(-31.41) scale(1.12 1)"><tspan x="0" y="0"> </tspan></text>
    <text class="cls-2" transform="translate(204.23 437.49) rotate(-27.58) scale(1.12 1)"><tspan x="0" y="0">t</tspan></text>
    <text class="cls-2" transform="translate(218.46 430.05) rotate(-24.95) scale(1.12 1)"><tspan x="0" y="0">u</tspan></text>
    <text class="cls-2" transform="translate(232.13 423.64) rotate(-22.36) scale(1.12 1)"><tspan x="0" y="0">r</tspan></text>
    <text class="cls-2" transform="translate(247.02 417.43) rotate(-19.86) scale(1.12 1)"><tspan x="0" y="0">e</tspan></text>
    <text class="cls-2" transform="translate(266.88 410.28) rotate(-17.46) scale(1.12 1)"><tspan x="0" y="0">r</tspan></text>
    <text class="cls-2" transform="translate(284.01 404.9) rotate(-15.59) scale(1.12 1)"><tspan x="0" y="0"> </tspan></text>
    <text class="cls-2" transform="translate(300.32 400.29) rotate(-13.7) scale(1.12 1)"><tspan x="0" y="0">ti</tspan></text>
    <text class="cls-2" transform="translate(324.2 394.55) rotate(-12.37) scale(1.12 1)"><tspan x="0" y="0">l</tspan></text>
    <text class="cls-2" transform="translate(333.92 392.39) rotate(-11.48) scale(1.12 1)"><tspan x="0" y="0"> </tspan></text>
    <text class="cls-2" transform="translate(350.74 388.93) rotate(-10.26) scale(1.12 1)"><tspan x="0" y="0">m</tspan></text>
    <text class="cls-2" transform="translate(378.36 383.98) rotate(-9.38) scale(1.12 1)"><tspan x="0" y="0">å</tspan></text>
    <text class="cls-2" transform="translate(394.75 381.28) rotate(-8.92) scale(1.12 1)"><tspan x="0" y="0">n</tspan></text>
    <text class="cls-2" transform="translate(411.71 378.61) rotate(-8.6) scale(1.12 1)"><tspan x="0" y="0">e</tspan></text>
    <text class="cls-2" transform="translate(433.31 375.36) rotate(-8.51) scale(1.12 1)"><tspan x="0" y="0">n</tspan></text>
    <text class="cls-2" transform="translate(450.35 372.82) rotate(-8.68) scale(1.12 1)"><tspan x="0" y="0"> </tspan></text>
    <text class="cls-2" transform="translate(467.59 370.19) rotate(-9.04) scale(1.12 1)"><tspan x="0" y="0">o</tspan></text>
    <text class="cls-2" transform="translate(483.97 367.59) rotate(-9.51) scale(1.12 1)"><tspan x="0" y="0">g</tspan></text>
    <text class="cls-2" transform="translate(507.77 363.59) rotate(-10.12) scale(1.12 1)"><tspan x="0" y="0" xml:space="preserve"> t</tspan></text>
    <text class="cls-2" transform="translate(525.24 360.49) rotate(-10.79) scale(1.12 1)"><tspan x="0" y="0">i</tspan></text>
    <text class="cls-2" transform="translate(550.25 355.69) rotate(-11.41) scale(1.12 1)"><tspan x="0" y="0">l</tspan></text>
    <text class="cls-2" transform="translate(560.71 353.59) rotate(-11.94) scale(1.12 1)"><tspan x="0" y="0">b</tspan></text>
    <text class="cls-2" transform="translate(577.08 350.13) rotate(-12.59) scale(1.12 1)"><tspan x="0" y="0">a</tspan></text>
    <text class="cls-2" transform="translate(594.17 346.35) rotate(-13.55) scale(1.12 1)"><tspan x="0" y="0">k</tspan></text>
    <text class="cls-2" transform="translate(619.19 340.31) rotate(-14.66) scale(1.12 1)"><tspan x="0" y="0">e</tspan></text>
  </g>
</svg>