<?xml version="1.0" encoding="UTF-8"?>
<svg id="Layer_2" data-name="Layer 2" xmlns="http://www.w3.org/2000/svg" viewBox="0 0 1048.38 716.11">
  <defs>
    <style>
      .cls-1 {
        font-size: 63px;
      }

      .cls-1, .cls-2, .cls-3 {
        fill: #231f20;
        font-family: Marydale-Bold, Marydale;
        font-weight: 700;
      }

      .cls-2 {
        font-size: 120px;
      }

      .cls-3 {
        font-size: 45px;
      }
    </style>
  </defs>
  <g id="Layer_1-2" data-name="Layer 1">
    <text class="cls-2" transform="translate(116.85 594.33) rotate(-60.83)"><tspan x="0" y="0">7</tspan></text>
    <text class="cls-2" transform="translate(146.18 540.13) rotate(-45.6)"><tspan x="0" y="0">4</tspan></text>
    <text class="cls-1" transform="translate(191.97 495.72) rotate(-35.72)"><tspan x="0" y="0"> </tspan></text>
    <text class="cls-3" transform="translate(210.79 482.28) rotate(-31.57)"><tspan x="0" y="0">t</tspan></text>
    <text class="cls-3" transform="translate(224.28 473.97) rotate(-28.66)"><tspan x="0" y="0">u</tspan></text>
    <text class="cls-3" transform="translate(237.31 466.79) rotate(-25.73)"><tspan x="0" y="0">r</tspan></text>
    <text class="cls-3" transform="translate(251.58 459.8) rotate(-22.85)"><tspan x="0" y="0">e</tspan></text>
    <text class="cls-3" transform="translate(270.82 451.72) rotate(-20.05)"><tspan x="0" y="0">r</tspan></text>
    <text class="cls-3" transform="translate(287.5 445.63) rotate(-17.83)"><tspan x="0" y="0"> </tspan></text>
    <text class="cls-3" transform="translate(303.44 440.42) rotate(-15.56)"><tspan x="0" y="0">ti</tspan></text>
    <text class="cls-3" transform="translate(326.95 433.98) rotate(-13.94)"><tspan x="0" y="0">l</tspan></text>
    <text class="cls-3" transform="translate(336.54 431.57) rotate(-12.82)"><tspan x="0" y="0"> </tspan></text>
    <text class="cls-3" transform="translate(353.11 427.73) rotate(-11.29)"><tspan x="0" y="0">m</tspan></text>
    <text class="cls-3" transform="translate(380.5 422.33) rotate(-10.13)"><tspan x="0" y="0">å</tspan></text>
    <text class="cls-3" transform="translate(396.75 419.42) rotate(-9.49)"><tspan x="0" y="0">n</tspan></text>
    <text class="cls-3" transform="translate(413.61 416.6) rotate(-8.98)"><tspan x="0" y="0">e</tspan></text>
    <text class="cls-3" transform="translate(435.14 413.21) rotate(-8.73)"><tspan x="0" y="0">n</tspan></text>
    <text class="cls-3" transform="translate(452.18 410.6) rotate(-8.73)"><tspan x="0" y="0"> </tspan></text>
    <text class="cls-3" transform="translate(469.42 407.97) rotate(-9)"><tspan x="0" y="0">o</tspan></text>
    <text class="cls-3" transform="translate(485.81 405.38) rotate(-9.49)"><tspan x="0" y="0">g</tspan></text>
    <text class="cls-3" transform="translate(510.22 401.28) rotate(-10.15)"><tspan x="0" y="0" xml:space="preserve"> t</tspan></text>
    <text class="cls-3" transform="translate(528.18 398.08) rotate(-10.88)"><tspan x="0" y="0">i</tspan></text>
    <text class="cls-3" transform="translate(553.26 393.22) rotate(-11.54)"><tspan x="0" y="0">l</tspan></text>
    <text class="cls-3" transform="translate(563.82 391.08) rotate(-12.11)"><tspan x="0" y="0">b</tspan></text>
    <text class="cls-3" transform="translate(580.27 387.55) rotate(-12.81)"><tspan x="0" y="0">a</tspan></text>
    <text class="cls-3" transform="translate(597.53 383.67) rotate(-13.85)"><tspan x="0" y="0">k</tspan></text>
    <text class="cls-3" transform="translate(622.65 377.45) rotate(-15.04)"><tspan x="0" y="0">e</tspan></text>
  </g>
</svg>