<?xml version="1.0" encoding="UTF-8"?>
<svg id="Layer_2" data-name="Layer 2" xmlns="http://www.w3.org/2000/svg" viewBox="0 0 882.75 221.04">
  <defs>
    <style>
      .cls-1 {
        fill: #0a0203;
        stroke: #231f20;
        stroke-miterlimit: 10;
      }
    </style>
  </defs>
  <g id="Layer_2-2" data-name="Layer 2">
    <g>
      <path class="cls-1" d="M877.06,188.12c.59-30.95,2.31-64.02,4.82-94.11-5.87,18.76-11.74,37.53-17.61,56.29-50.93,8.43-62.46,12.03-62.27,13.7.35,3.17,43.63,8.18,62.27-13.7,9-10.56,9.95-24.69,9.32-35.07,2.55-4.5,8.02-13.15,7.47-24.85-.44-9.44-2.92-19.29-4.75-27.29-30.73-75.27-112.9-66.91-163.02-14.16-22.04,38.92-35.58,89.31-50.75,131.32"/>
      <path class="cls-1" d="M.5,213.66C4.83,111.11,60.6-34.17,183.55,7.98c89.51,34.23,68.61,133.53,68.54,213.06"/>
    </g>
  </g>
</svg>