<?xml version="1.0" encoding="UTF-8"?>
<svg id="Layer_2" data-name="Layer 2" xmlns="http://www.w3.org/2000/svg" viewBox="0 0 1684.71 701.38">
  <defs>
    <style>
      .cls-1 {
        fill: #005ba7;
        stroke-width: 0px;
      }
    </style>
  </defs>
  <g id="footer">
    <path class="cls-1" d="M1684.46,84.12c-12.48-18.23-24.97-36.45-37.45-54.68C1254.35,9.44,135.3-82.75.32,211.27c-.53,8.53-.31,50.86,0,114.08.19,66.32.49,133.28.1,198.54,2.39,37.76-12.75,40.41,40.19,24.28,252.44-98.13,867.72,23.99,869.31,25.01,0,0,.17.04.18.04,180.96,43.98,231.21,84.66,332.69,109.9,113.03,28.11,208.56,16.92,255.94,10.94,78.46-9.91,141.7-30.5,185.11-47.76.4-83.89.66-167.76.79-251.62.15-103.5.1-207.02-.16-310.56Z"/>
  </g>
</svg>