<?xml version="1.0" encoding="UTF-8"?>
<svg id="Layer_2" data-name="Layer 2" xmlns="http://www.w3.org/2000/svg" viewBox="0 0 365.08 418.2">
  <defs>
    <style>
      .cls-1, .cls-2, .cls-3, .cls-4, .cls-5, .cls-6 {
        stroke-miterlimit: 10;
      }

      .cls-1, .cls-2, .cls-3, .cls-5, .cls-6 {
        stroke: #231f20;
      }

      .cls-1, .cls-3, .cls-4, .cls-5, .cls-6 {
        stroke-width: 4.6px;
      }

      .cls-1, .cls-7 {
        fill: #231f20;
      }

      .cls-8 {
        fill: #221f1f;
      }

      .cls-8, .cls-9, .cls-7 {
        stroke-width: 0px;
      }

      .cls-2 {
        fill: #a1cf6d;
        stroke-width: 4.6px;
      }

      .cls-3 {
        fill: #f4eb42;
      }

      .cls-4 {
        fill: none;
        stroke: #fff;
      }

      .cls-5 {
        fill: #b6a69e;
      }

      .cls-9 {
        fill: #fff;
      }

      .cls-6 {
        fill: #ac9181;
      }
    </style>
  </defs>
  <g id="footer">
    <g>
      <g>
        <path class="cls-6" d="M5.47,117.7c-8.88-7.89,2.62-23.89,13.14-19.16,13.05,9.36-.03,28.49-13.14,19.16Z"/>
        <g>
          <g>
            <path class="cls-7" d="M250.79,298.97c17.92,17.14,30.44,39.1,39.38,62.06,2.52,6.48,4.78,13.06,6.83,19.7.95,3.06,5.78,1.76,4.82-1.33-7.45-24.11-17.67-47.8-33.15-67.9-4.39-5.7-9.15-11.09-14.35-16.06-2.33-2.22-5.87,1.31-3.54,3.54h0Z"/>
            <path class="cls-7" d="M182.1,309.98c5.02,24.72,4.76,50.27,11.06,74.76,1.78,6.93,4.13,13.69,7.11,20.2.56,1.23,2.34,1.53,3.42.9,1.26-.74,1.46-2.19.9-3.42-10.43-22.75-11.44-48.19-14.39-72.64-.85-7.07-1.86-14.13-3.28-21.12-.27-1.32-1.84-2.09-3.08-1.75-1.38.38-2.02,1.75-1.75,3.08h0Z"/>
            <path class="cls-2" d="M158.14,258.41c3.47,89.24-19.9,49.66,45.91,60.11,1.89-48.6,10.1-39.05,20.47,1.46,15.22-10.95,33.38-17.78,52.04-19.57-21.91-59.48-54.34-100.43-118.42-42Z"/>
            <path class="cls-3" d="M90.38,145.21c54.21,34.63,62.82,52.33,57.49,116.91,72.68-43.38,148.58,29.94,83.64-77.05,35.13,16.02,30.05,0,36.22-29.73-17.02-10.59-39.44-9.53-56.46-20.12-46.6,41.06-97.38-47.56-120.89,9.99Z"/>
            <path class="cls-7" d="M202.43,403.67c-12.2-14.92-88.57-22.79-70.93,7.45,22.48,11.73,51.36,8.64,70.93-7.45Z"/>
            <path class="cls-7" d="M300.14,380.92c63.22-90.8,88.92-11.6-.39-.11"/>
          </g>
          <g>
            <g>
              <g>
                <path class="cls-5" d="M227.21,40.11c14.83,32.61-4.7,79.78-38.93,91.07-138.19.74-56.02-213.54,38.93-91.07Z"/>
                <path class="cls-1" d="M201.72,88.63c17.18-5.89,15.47-43.67-5.17-44.22-24.18,1.73-22.98,51.59,5.17,44.22Z"/>
              </g>
              <path class="cls-7" d="M138.48,44.07c-15.42,12.03-18.74,47.72,5.27,47.59,36.27,5.09,25.82-61.4-5.27-47.59Z"/>
              <path class="cls-9" d="M148.31,87.11c25.64-5.34-7.92-28.95-15.76-15.3-.36,8.56,1.3,14.69,15.76,15.3Z"/>
              <path class="cls-9" d="M142.85,47.69c-13.82,6.46,4.34,13.24,9.27,6.94,5.32-5.9-5.81-8.46-9.27-6.94Z"/>
            </g>
            <path class="cls-9" d="M185.41,78.31c1.82,5.66,9.6,7.41,14.92,6.38,24.07-4.89-27.03-32.52-14.92-6.38Z"/>
            <path class="cls-9" d="M202.67,54.61c.37-15.78-28.87,4.46-7.11,6.34,3.64,0,5.95-3.11,7.11-6.34Z"/>
          </g>
          <g>
            <g>
              <g>
                <path class="cls-8" d="M287.72,84.69c-18.69,43.43,19.09,37.79,49.29,40.78,9.02-9.06,41.95-111.18,15.34-106.14-77.09-14.99-47.85-4.01-64.63,65.36Z"/>
                <path class="cls-8" d="M285.56,83.43c-2.29,5.36-4.27,10.86-5.03,16.66-.49,3.75-.44,7.74.9,11.32,2.56,6.84,8.78,10.55,15.53,12.47,7.92,2.25,16.35,2.6,24.53,3.05,4.47.25,8.95.47,13.42.86,1.37.12,2.8.49,3.92-.58.2-.19.36-.41.53-.62.59-.73,1.11-1.49,1.59-2.29,2.69-4.47,4.64-9.43,6.53-14.27,2.67-6.82,5.02-13.77,7.17-20.77,4.66-15.19,8.72-30.91,10.07-46.78.68-7.98,1.65-24.71-9.74-25.77-1.1-.1-2.2.03-3.29.23h1.33c-11.53-2.24-23.15-4.65-34.87-5.66-5.75-.5-12.54-.9-17.74,2.13-4.3,2.51-6.17,7.2-7.06,11.88-1.32,7.02-1.48,14.25-2.09,21.35-.95,11.12-2.4,21.47-4.83,32.5-.36,1.64-.74,3.28-1.13,4.91-.75,3.13,4.07,4.46,4.82,1.33,2.76-11.46,4.65-23.1,5.79-34.83.41-4.19.71-8.39,1.03-12.58.13-1.74.27-3.48.43-5.22.08-.8.16-1.6.25-2.39.04-.37.09-.73.13-1.1.01-.11.09-.7.03-.24s.03-.24.05-.36c.19-1.27.41-2.54.71-3.8.14-.58.3-1.15.48-1.72.08-.26.17-.52.26-.77s.51-1.15.1-.28c.44-.91.91-1.74,1.46-2.59.05-.07-.45.52-.13.17.08-.09.16-.19.24-.28.16-.19.33-.37.51-.54.15-.15.32-.3.48-.44.09-.08.2-.15.29-.24.2-.2-.57.38-.13.11s.82-.55,1.27-.78c.21-.11.43-.2.63-.31.44-.24-.61.21-.12.05.13-.04.26-.1.39-.15,1.12-.41,2.27-.65,3.44-.85.63-.11-.39.03-.02,0,.15-.01.31-.04.46-.05.37-.04.74-.07,1.1-.1.77-.06,1.55-.08,2.32-.09,1.77-.02,3.54.06,5.31.19,2.14.16,4.26.39,6.39.66.27.03.54.07.81.1.07,0,.55.07.25.03-.28-.04.12.02.14.02.65.09,1.3.18,1.95.28,1.34.2,2.68.41,4.02.62,6.43,1.04,12.83,2.25,19.22,3.48,1.1.21,2.23.56,3.35.39.14-.02.29-.04.43-.07-.19.04-.54.03-.01.01s1.14.08,1.65.02c-.76.09-.23-.04.19.07.21.05.54.25.75.24.04,0-.58-.31-.2-.08.11.07.23.12.34.18.22.12.42.31.65.42-.6-.3-.21-.17.09.11.2.18.37.39.55.58.48.52-.27-.48.14.2.15.25.31.49.46.74s.26.51.39.76c.05.1.25.58.07.13s.03.09.08.21c.23.63.43,1.26.6,1.91.18.69.32,1.38.43,2.08.03.2.06.39.09.59.08.44-.06-.56,0,.02.05.42.1.84.13,1.26.16,1.75.2,3.52.18,5.28-.02,1.99-.14,3.98-.3,5.96-.09,1.08-.2,2.17-.32,3.25-.06.5-.12,1.01-.18,1.51-.04.29-.07.58-.11.87-.01.1-.07.49,0,0-.02.15-.04.29-.06.44-1.39,9.83-3.61,19.53-6.22,29.1-2.53,9.31-5.44,18.52-8.8,27.56-.71,1.9-1.43,3.78-2.19,5.66-.17.43-.35.86-.53,1.28-.08.19-.16.39-.24.58-.22.54.15-.35-.13.3-.33.77-.66,1.54-1.01,2.31-1.08,2.41-2.21,4.83-3.63,7.06-.23.37-.53.71-.74,1.09.02-.03.42-.48.02-.04-.12.13-.23.26-.35.38l1.77-.73c-5.87-.58-11.77-.83-17.66-1.17-2.88-.17-5.75-.36-8.62-.63s-4.77-.49-7.6-1.01c-2.4-.44-4.78-1.01-7.08-1.82-.52-.18-1.03-.38-1.54-.59.51.21-.18-.08-.32-.15-.27-.12-.54-.25-.8-.38-.94-.47-1.85-.99-2.71-1.6-.2-.14-.4-.29-.6-.44.44.34-.06-.06-.21-.18-.37-.31-.72-.64-1.06-.99s-.65-.7-.95-1.08c.4.49-.05-.07-.15-.21-.17-.25-.34-.5-.5-.76-.24-.39-.46-.79-.66-1.21-.04-.08-.35-.78-.22-.47.11.26-.16-.45-.21-.59-.17-.5-.32-1-.44-1.51-.06-.26-.12-.53-.17-.8-.03-.17-.18-1.17-.11-.59-.86-7.09,1.64-14.23,4.48-20.87.53-1.24.37-2.68-.9-3.42-1.05-.62-2.89-.35-3.42.9Z"/>
              </g>
              <path class="cls-4" d="M346.84,62.05c-9.86.93-15.66-11.08-15.93-19.7,8.09,93.97-59.35,40.66-15.72,25.08"/>
            </g>
            <path class="cls-8" d="M263.43,176.42c7.99,1.64,16.23,3.24,24.43,3.18,4.62-.03,9.69-.65,13.51-3.5,3.47-2.59,5.33-6.46,6.38-10.57,1.32-5.18,1.73-10.59,2.32-15.88.9-8.14,1.98-15.92,3.9-24.15.73-3.13-4.09-4.47-4.82-1.33-1.7,7.31-2.83,14.72-3.7,22.16-.34,2.92-.64,5.85-.99,8.77-.07.61-.15,1.21-.22,1.82-.02.16-.16,1.18-.06.51-.05.35-.1.7-.15,1.04-.17,1.16-.36,2.32-.59,3.46-.2,1.02-.43,2.03-.71,3.02-.14.49-.29.97-.45,1.45-.06.19-.13.37-.2.55s-.47,1.1-.12.33c-.36.79-.73,1.56-1.19,2.29-.12.18-.24.36-.36.54-.26.39-.18.23-.04.06-.29.34-.58.69-.9,1-.28.27-.58.51-.86.78s.17-.13.2-.15c-.11.07-.21.16-.32.23-.18.12-.37.25-.55.37-.37.23-.75.44-1.14.63-.19.09-.39.18-.58.27.74-.35-.11.03-.29.1-.98.35-1.99.61-3.02.8-.29.05-.58.1-.87.14-.37.06.41-.04-.24.03s-1.36.13-2.04.17c-8.48.44-16.73-1.26-24.99-2.95-1.32-.27-2.7.38-3.08,1.75-.34,1.24.42,2.8,1.75,3.08h0Z"/>
          </g>
          <path class="cls-7" d="M94.24,130.15c-17.52-5.79-35.31-10.79-53.29-14.93-5.1-1.18-10.22-2.29-15.36-3.33-1.32-.27-2.7.38-3.08,1.75-.34,1.23.42,2.8,1.75,3.08,18.09,3.68,36,8.19,53.67,13.52,5.01,1.51,10.01,3.1,14.98,4.74,3.06,1.01,4.37-3.81,1.33-4.82h0Z"/>
        </g>
      </g>
      <path class="cls-7" d="M168.51,122.2c8.14,0,16.27,0,24.41,0,3.22,0,3.22-5,0-5-8.14,0-16.27,0-24.41,0-3.22,0-3.22,5,0,5h0Z"/>
    </g>
  </g>
</svg>