<?xml version="1.0" encoding="UTF-8"?>
<svg id="Layer_2" data-name="Layer 2" xmlns="http://www.w3.org/2000/svg" viewBox="0 0 1621.02 876.05">
  <defs>
    <style>
      .cls-1 {
        fill: #a1cf6d;
        stroke: #231f20;
        stroke-miterlimit: 10;
        stroke-width: 4.6px;
      }
    </style>
  </defs>
  <g id="Layer_1-2" data-name="Layer 1">
    <g>
      <path class="cls-1" d="M837.12,693.35c-15.06-4.75-35.94,3.05-45.12-9.46-6.24-8.5-18.14,3.01-26.97,1.89-19.56,3-42.57,14.52-52.07-8.06-2.01-6.58-14.8-.69-14-11.04-4.05-20.65-1.25-43.47,6.62-64.38,3.5-15.59-4.43-34.49,4.59-48.72,11.18-1.56-.59-8.59,3.19-12.8,12.51-3.96,9.25-26.31,18.67-26.02,6.79-.1,9.77-5.47,13.93-9.24,22.59,4.59,52.82,1.53,68.65,25.15,2.42-3.42,4.92-7.3,6.79-.08.42,14.72,19.11,18.9,20.04,30.11-.17,2.84.29,4.89,3.92,5.83,14.31,2.89,4.49,24.32,19.81,25.72,4.78,3.07,4.7,11.74,12.02,12.62,3.13.97,3.64,2.58,3.63,5.2-2.62,9.26,11.68,13.9,5.06,22.07-1.57,26.14-14.01,73.61-48.74,61.2Z"/>
      <path class="cls-1" d="M1349.43,261.5c-61.7-70.65-66.86-87.46-16.23-168,56.42-16.12,157,80.45,163.3,83.72,149.65,162.04,112.87,106.2,122.22,313.46-.29,140.74-1.22,201.94-.41,382.89-562.66-41.21-169.51-187.56-223.69-313.77-67.85-107.08,52.7-212.71-45.2-298.29Z"/>
      <path class="cls-1" d="M933.41,112.1c-.17,2.87-1.82,4.72-3.45,6.46-6.72,3.27,1.1,11.48-4.36,15.19-11.35,6.47,7.58,22.35-9.69,25.81,3.79,54.12,63.48,115.42-14.87,149.72-37.66,12.86-55.67,32.82-89.51,2.72-30.59-23.35-36.03-89.87-85.01-92.15-69.36-8.57-138.84-72.62-135.92-147.8,21.02-48.13,546.92-126.94,380.53-4.84-5.5,5.27-3.86,18.09-13.53,17.56-8.14,6.71-14.26,19.93-24.19,27.32Z"/>
      <path class="cls-1" d="M380.3,263.24c-24.99,67.39-1.94,178.01-95.87,191.26-10.02,7.99-28.22,12.36-37.9,23.7-47.07,25.19-94.76,76.24-76.47,133.38,13.7,16.01-86.56,116.73-105.64,117-20.09,6.36-25.34-21.52-39.95-28.9-35.8-39.63,38.77-93.51,4.19-137.44-7.86-19.63-30.97-37.18-25.55-60.5,22.45-20.61,26.2-54.98,53.46-71.19,8.56-23.89,32.94-39.38,29.78-66.33,13.89-18.2-1.86-52.34,16.68-68.06,24.89-37.32,451.68-288.19,338.53-132.07-2.85.83-1.85,8.46-5.34,11.64,2.42,3.71,5.06-1.58,7.37.78-1.31,4.88-6.13,3.3-9.14,4.98-2.81,1.57-8.49.18-6.97,6.51-1.73,3.22-8.97,1.6-9.4,7.73-10.3,23.12-24.82,45.87-37.76,67.5Z"/>
    </g>
  </g>
</svg>