<?xml version="1.0" encoding="UTF-8"?>
<svg id="cloud--medium" data-name="Layer 2" xmlns="http://www.w3.org/2000/svg" viewBox="0 0 101.42 94.79">
  <defs>
    <style>
      .cls-1 {
        fill: #0a0203;
      }

      .cls-1, .cls-2 {
        stroke: #231f20;
        stroke-miterlimit: 10;
      }

      .cls-2 {
        fill: #fff;
        stroke-width: 4.6px;
      }

      .cls-3 {
        fill: #a1cf6d;
      }

      .cls-3, .cls-4 {
        stroke-width: 0px;
      }

      .cls-4 {
        fill: #231f20;
      }
    </style>
  </defs>
  <g id="footer">
    <g>
         <animateTransform attributeName="transform" attributeType="XML" type="rotate" from="0 81.945 76.895"
                   to="360 81.945 76.895" dur="10s" repeatCount="indefinite" />
          <path class="cls-3" d="M43.57,6.94c-12.18-2.85-29.76,5.32-25.52,19.69l-1.35,4.27c-18.8.59-19.67,34.07,1.9,35.08,5.39,0,1.69,8.52,6.25,11.39l2.33-.64c2.24,14.51,22.41,20.59,32.8,10.86,13.34,8.1,24.02-9.66,25.86-21.45,18.68,14.06,17.03-29.92-2.95-20.82,10.13-7.95,6.02-25.2-8.19-21.02,9.34-29.49-37.98-26.42-32.92-5.99"/>
          <path class="cls-4" d="M44.23,4.52c-10.5-2.38-24.68,1.96-28.53,12.94-1.11,3.16-.98,6.64-.07,9.83v-1.33c-.45,1.42-.9,2.84-1.35,4.27l2.41-1.84c-5.23.2-9.78,2.64-12.86,6.87C1.04,39.09-.17,44.12.02,48.81c.2,5.01,1.91,9.95,5.28,13.71,1.65,1.84,3.73,3.32,5.99,4.3,1.31.57,2.64,1.01,4.04,1.27.77.14,1.54.24,2.32.32.35.03.71.05,1.06.07.42.02-.32.03.05,0,.07.01.14.03.21.05.18.06.14.03-.12-.07.12-.05.37.43-.03-.08.04.06.41.44.18.15s.33.82.1.17c.22.64.34,1.3.44,1.96-.07-.46.05.42.07.56.07.56.14,1.11.22,1.67.11.75.24,1.5.48,2.22.57,1.73,1.57,3.39,3.16,4.35,1.36.82,2.97.07,4.37-.32l-3.08-1.75c2.04,12.55,16.15,19.57,27.89,16.81,3.4-.8,6.52-2.49,9.08-4.85l-3.03.39c5.16,3.07,11.22,3.14,16.26-.24s8.26-8.37,10.53-13.66c1.25-2.91,2.24-5.92,2.74-9.06l-3.67,1.49c2.93,2.18,6.92,4.07,10.6,2.66,3.19-1.22,5.03-4.3,5.75-7.51,1.55-6.85-.44-15.5-6.31-19.8-3.91-2.87-8.79-2.37-12.99-.49l3.03,3.93c4.06-3.25,6.58-8.46,6.33-13.69s-2.91-9.62-7.69-11.46c-2.96-1.14-6.26-.9-9.26-.05l3.08,3.08c1.58-5.08,1.98-10.64-.42-15.53-1.93-3.94-5.63-6.61-9.68-8.06C59.3-1.39,49.05,0,43.03,5.8c-3.59,3.47-4.83,8.34-3.67,13.16.75,3.13,5.57,1.8,4.82-1.33-.06-.24-.11-.48-.16-.72-.02-.12-.12-.75-.07-.38.05.4-.03-.36-.04-.45-.02-.25-.03-.51-.03-.76,0-.38.05-.76.06-1.14.01-.33-.12.49.02-.12.05-.23.09-.46.15-.69.1-.38.23-.73.35-1.1.13-.41-.24.46.02-.03.11-.2.2-.41.31-.61.18-.34.39-.65.6-.97.06-.09.12-.16.18-.25.18-.27-.32.39-.11.14.15-.18.29-.36.45-.53.24-.27.5-.53.76-.78.15-.14.31-.28.47-.42.09-.08.66-.53.37-.31s.17-.12.27-.19c.18-.12.36-.25.54-.36.37-.24.75-.46,1.14-.67s.75-.38,1.13-.56c.27-.12.55-.23.11-.05.24-.1.48-.19.72-.28.85-.31,1.72-.57,2.6-.78.46-.11.93-.2,1.39-.28.21-.04.41-.07.62-.1.35-.06-.49.06-.13.02.15-.02.3-.04.45-.05.92-.1,1.85-.14,2.78-.14s1.85.07,2.77.18c-.7-.08.04,0,.22.04.23.04.47.08.7.13.46.09.92.2,1.37.32.42.11.84.24,1.25.38.19.07.38.13.57.21.11.04.21.08.32.13.44.17-.33-.15-.04-.02.8.37,1.58.76,2.31,1.24.19.12.37.25.55.38.09.06.18.13.27.2,0,0-.39-.31-.18-.13.36.3.72.61,1.06.94.28.27.53.57.79.86.45.5-.11-.18.13.15.15.21.29.41.43.63.26.41.5.83.72,1.27.05.1.1.21.15.32.21.42-.12-.32,0-.03.09.25.19.5.28.76.17.53.31,1.07.42,1.61.05.25.09.51.13.76-.1-.66.02.28.03.42.1,1.26.05,2.54-.11,3.79.06-.5-.09.52-.11.63-.07.37-.14.74-.23,1.1-.18.78-.39,1.55-.63,2.31-.57,1.83,1.28,3.59,3.08,3.08,1.54-.44,2.61-.64,4.22-.53.17.01.34.03.51.04-.25-.04-.23-.03.07.02.31.06.63.13.93.22s.59.18.87.3c-.47-.2.13.07.22.13.26.15.51.29.76.45.12.08.24.16.36.25-.22-.17-.22-.17,0,.01.21.19.43.39.62.59.07.07.64.76.3.32.35.46.63.97.91,1.48.07.13.13.26.19.4-.11-.26-.11-.26,0,.01.09.24.17.49.25.74.64,2.13.57,4.11-.13,6.35-.35,1.13-.76,1.99-1.56,3.19-.65.96-1.65,1.99-2.77,2.88-.96.77-.9,2.4-.2,3.28.83,1.04,2.05,1.17,3.23.64.44-.2-.22.07.22-.09.23-.09.46-.18.7-.25.44-.15.89-.28,1.35-.38.18-.04.37-.07.56-.11.59-.13-.28,0,.15-.02.41-.03.81-.06,1.21-.05.27,0,1.19.15.48.01.36.07.72.13,1.08.24.17.05.34.12.52.17.47.13-.15-.08-.03-.02.32.15.64.31.95.49.28.17.55.36.82.55-.59-.43.24.23.43.41.22.22.44.44.64.68.12.14.24.28.35.42.01.02-.24-.35.04.07.4.61.79,1.22,1.12,1.88.11.22.53,1.19.27.54.15.36.29.73.41,1.1.24.7.43,1.41.59,2.13.08.36.15.72.21,1.09.05.28.08.59.02.09.02.2.05.39.07.59.07.75.11,1.5.1,2.25,0,.35-.02.71-.04,1.06-.01.16-.02.32-.04.48-.01.12-.1.8-.04.38.05-.37-.09.48-.12.66-.07.34-.15.68-.25,1.02-.09.3-.19.6-.29.89-.05.13-.1.26-.15.39.28-.73.06-.14-.03.03-.14.25-.27.51-.42.75-.07.11-.15.21-.22.32-.26.44.37-.36,0,0-.19.18-.37.39-.56.58-.51.5.34-.13-.21.16-.14.07-.28.16-.41.24-.35.2-.23.04.1-.03-.28.06-.61.16-.89.25-.48.15.55.02.03,0-.15,0-.31.01-.47.01-.18,0-.37-.03-.55-.03-.37,0,.54.14.01,0-.38-.11-.77-.18-1.15-.31-.22-.07-.72-.28-.21-.06-.2-.09-.39-.18-.59-.27-1-.49-1.93-1.11-2.82-1.77-1.21-.9-3.43,0-3.67,1.49-.97,6.05-3.59,12.21-7.67,16.75-1.92,2.13-4.1,3.86-6.65,4.58-1.15.32-2.49.43-3.53.28-1.59-.24-2.97-.84-4.34-1.65-.99-.59-2.21-.36-3.03.39-3.57,3.29-8.28,4.38-13.21,3.88-.79-.08-2.19-.37-3.29-.69-1.32-.39-2.13-.7-3.27-1.28-2.29-1.17-3.95-2.42-5.63-4.38s-2.78-4.49-3.23-7.28c-.22-1.33-1.88-2.07-3.08-1.75-.78.21-1.55.43-2.33.64l1.93.25c-.29-.2-.08.01-.37-.33-.18-.22-.03,0,0,.04-.1-.12-.18-.27-.27-.4-.28-.45-.29-.5-.48-1.22-.15-.57-.25-1.15-.34-1.74-.06-.4,0,.09-.06-.46-.05-.4-.1-.79-.15-1.19-.35-2.58-1.19-5.23-3.93-6.13-.66-.22-1.36-.26-2.05-.3-.31-.02-.62-.04-.93-.07-.13-.01-.26-.03-.39-.04-.47-.06.57.1-.22-.04-1.12-.2-2.2-.49-3.27-.89-.44-.16.17.09-.25-.1-.24-.11-.48-.22-.71-.35-.49-.26-.97-.54-1.43-.84-.21-.14-.42-.29-.62-.44-.23-.17.05.04.08.06-.11-.09-.22-.18-.33-.27-.38-.33-.75-.66-1.1-1.02s-.67-.73-.99-1.12c.29.36-.09-.13-.18-.26-.14-.2-.28-.41-.42-.61-.27-.42-.52-.84-.75-1.28-.12-.22-.23-.44-.33-.66-.05-.1-.09-.19-.14-.29-.03-.06-.26-.6-.13-.29.1.24-.16-.41-.19-.5-.07-.2-.14-.4-.21-.61-.17-.51-.31-1.03-.44-1.55-.12-.49-.22-.98-.3-1.47-.02-.1-.1-.7-.06-.41.03.24-.05-.48-.06-.63-.09-1.04-.1-2.08-.04-3.12.03-.46.07-.93.13-1.39.04-.3-.01.11-.02.14.02-.14.04-.28.07-.42.05-.28.1-.56.16-.83.2-.96.47-1.91.82-2.82.05-.13.28-.71.18-.47-.11.26.18-.38.21-.45.21-.43.43-.85.67-1.27.27-.47.58-.91.89-1.36.06-.09.29-.37-.02.02.08-.1.17-.21.25-.31.18-.2.35-.41.53-.6.37-.39.76-.75,1.16-1.1.08-.07.15-.13.23-.19.23-.19-.34.23.05-.04.22-.15.44-.31.67-.45.46-.29.94-.54,1.43-.78.37-.18-.27.08.26-.11.26-.1.53-.19.8-.28.55-.17,1.12-.29,1.68-.41s-.13-.02.45-.06c.35-.03.69-.05,1.04-.07,1.14-.04,2.07-.75,2.41-1.84.27-.87.55-1.74.82-2.6.42-1.32.71-2.2.35-3.62s-.45-2.53-.34-4.04c.05-.73.55-2.57.89-3.24,1.19-2.36,2.9-4.16,5.08-5.57,2.47-1.6,4.9-2.52,7.81-3.13s6.33-.65,9.19,0c3.13.71,4.47-4.11,1.33-4.82h0Z"/>
          <path class="cls-2" d="M27.3,29.55c-2.36,6.22-5.72,26.98.3,29.45,13.34,4.87,16.24-10.8,17.31-21.19-5.46-3.9-11.28-7.15-17.61-8.26Z"/>
          <path class="cls-1" d="M40.37,68.92c-2.81.73-1,3.94.3,5.8,8.89,9.43,12.92-3.82,21.65-6.58,3.01-3.4-19.62,1.21-21.96.78Z"/>
          <path class="cls-3" d="M39.12,44.32c.42,3.93-4.72,5.83-5.73,1.49-1.53-4.56,5.61-6.48,5.73-1.49Z"/>
          <path class="cls-2" d="M70.22,31.09c12.64,32.05-13.38,45.38-17.62,8.26,5.46-3.9,11.29-7.15,17.62-8.26Z"/>
          <path class="cls-3" d="M58.4,45.85c-.42,3.93,4.72,5.83,5.73,1.49,1.53-4.56-5.61-6.48-5.73-1.49Z"/>
      <path class="cls-4" d="M54.09,30.65c2.15-2.13,4.09-4.45,5.86-6.91.36-.5.41-1.36.25-1.93s-.61-1.21-1.15-1.49c-.58-.31-1.28-.46-1.93-.25s-1.1.59-1.49,1.15c-.36.51-.74,1.01-1.12,1.5l.39-.51c-1.34,1.73-2.79,3.37-4.35,4.9-.93.92-.99,2.63,0,3.54s2.54.98,3.54,0h0Z"/>
      <path class="cls-4" d="M44.98,25.6c-2.15-1.1-4.2-2.38-6.14-3.83-.49-.36-1.37-.41-1.93-.25s-1.21.61-1.49,1.15c-.31.58-.46,1.28-.25,1.93l.25.6c.22.38.52.67.9.9,1.94,1.44,3.99,2.73,6.14,3.83.6.31,1.27.43,1.93.25.58-.16,1.21-.61,1.49-1.15.6-1.14.35-2.78-.9-3.42h0Z"/>
    </g>
</svg>