<?xml version="1.0" encoding="UTF-8"?>
<svg id="Layer_2" data-name="Layer 2" xmlns="http://www.w3.org/2000/svg" viewBox="0 0 404.59 559.08">
  <defs>
    <style>
      .cls-1 {
        fill: #0a0203;
      }

      .cls-1, .cls-2, .cls-3 {
        stroke-width: 0px;
      }

      .cls-4 {
        fill: #f3eb46;
      }

      .cls-4, .cls-5, .cls-6, .cls-7 {
        stroke-width: 4.6px;
      }

      .cls-4, .cls-5, .cls-6, .cls-7, .cls-8 {
        stroke-miterlimit: 10;
      }

      .cls-4, .cls-5, .cls-6, .cls-8 {
        stroke: #231f20;
      }

      .cls-5, .cls-2 {
        fill: #231f20;
      }

      .cls-6 {
        fill: #826d5e;
      }

      .cls-7 {
        fill: none;
        stroke: #fff;
      }

      .cls-8 {
        fill: #a1cf6d;
        stroke-width: 4.6px;
      }

      .cls-3 {
        fill: #fff;
      }
    </style>
  </defs>
  <g id="Layer_3" data-name="Layer 3">
    <g>
      <path class="cls-2" d="M277.18,429.33c6.82,10.01,13.98,19.8,21.71,29.13,2.08,2.51,4.2,4.97,6.32,7.44.74.87,1.48,1.73,2.19,2.62.15.18.29.37.44.55.32.39-.34-.46-.13-.16.07.1.15.2.22.29.25.33.49.67.72,1.01.4.59.67,1.25,1.04,1.85-.03-.05-.24-.68-.06-.13.04.14.09.27.13.41s.09.8.19.88c-.2-.15-.05-.81-.04-.19,0,.15.01.3.01.45,0,.3-.06.61-.06.91,0-.07.13-.71,0-.14-.04.17-.07.35-.1.52-.08.36-.18.72-.28,1.07-1.44,4.94-3.68,9.68-5.39,14.54-3.85,10.99-6.79,22.29-9.31,33.65-.45,2.03-.88,4.07-1.31,6.11-.27,1.32.39,2.7,1.75,3.08,1.24.34,2.8-.42,3.08-1.75,2.6-12.5,5.62-24.95,9.69-37.07,1.84-5.48,4.18-10.79,6.01-16.27,1.07-3.21,1.29-6.31-.37-9.36-.92-1.69-2.2-3.2-3.42-4.68-1.84-2.21-3.74-4.37-5.6-6.57-7.08-8.38-13.42-16.8-19.74-25.85-1.13-1.62-2.26-3.26-3.38-4.89-.76-1.11-2.2-1.61-3.42-.9-1.1.65-1.66,2.3-.9,3.42h0Z"/>
      <g>
        <path class="cls-6" d="M10.67,311.9c-11.74-1.81-10.76-21.49.65-23.22,16.04.79,15.43,23.95-.65,23.22Z"/>
        <path class="cls-2" d="M187.61,555.03c-7.25-14.93-73.82-41.14-66.91-11.59,17.75,15.5,44.86,19.72,66.91,11.59Z"/>
        <path class="cls-2" d="M296.04,531.34c17.92-3.15,35.31-11.09,53.45-9.06,29.83,6.89-11.01,36.86-53.45,9.06Z"/>
        <path class="cls-4" d="M167.87,371.48c.73,18.58-2.14,46.35.28,64.51,34.73,3.57,90.01,25.29,66.31-30.2,24.23,39.15,33.91,22.55,74.07,16.94-5.59-24.54-8.04-53.45-15.19-76.83-44.37,3.71-82.21,13.83-125.47,25.58Z"/>
        <path class="cls-2" d="M24.09,302.21c20.32-.29,40.64,1.75,60.47,6.18,5.59,1.25,11.14,2.68,16.64,4.29,1.08.32,2.25-.22,2.82-1.15,5.59-9.03,14.01-16.35,23.83-20.46,1.24-.52,2.14-1.65,1.75-3.08-.32-1.17-1.82-2.27-3.08-1.75-11.08,4.64-20.48,12.53-26.82,22.76l2.82-1.15c-19.85-5.8-40.37-9.27-61.02-10.33-5.8-.3-11.61-.4-17.42-.31-3.21.05-3.22,5.05,0,5h0Z"/>
        <path class="cls-8" d="M117.22,276.18c17.45,95.14,45.97-77.26,45.15,102.12,118.93-51.91,161.71,29.93,114.5-123.82,10.29-20.8,27.03-38.47,41.58-56.51-27.9-52.74-47.19-1.49-80.26,19.39-76.82,19.77-61.27-19.09-120.97,58.82Z"/>
        <path class="cls-2" d="M306.67,183.53c4.73-2.29,8.7-5.89,11.31-10.46s3.82-9.52,4.51-14.57c1.57-11.48.63-23.11,1.87-34.62.63-5.79,2.01-12,4.78-17.18,1.52-2.84-2.8-5.36-4.32-2.52-5.42,10.11-5.95,21.92-6.2,33.14-.13,5.63-.15,11.28-.64,16.89-.23,2.63-.5,4.75-1.08,7.39-.26,1.19-.56,2.38-.93,3.55-.17.55-.35,1.09-.55,1.63-.11.29-.22.57-.33.86-.05.12-.1.24-.15.36.1-.24-.02.03-.06.12-1.12,2.48-2.43,4.56-4.11,6.34-1.95,2.07-3.98,3.45-6.64,4.74-1.22.59-1.54,2.32-.9,3.42.73,1.24,2.2,1.49,3.42.9h0Z"/>
        <path class="cls-2" d="M194.95,442.41c-3.11,28.97-5.79,57.99-8.04,87.04-.63,8.19-1.23,16.39-1.8,24.59-.09,1.35,1.22,2.5,2.5,2.5,1.43,0,2.41-1.15,2.5-2.5,2.01-29.07,4.44-58.11,7.31-87.11.81-8.18,1.65-16.35,2.53-24.53.14-1.34-1.25-2.5-2.5-2.5-1.47,0-2.36,1.15-2.5,2.5h0Z"/>
        <g>
          <g>
            <g>
              <g>
                <path class="cls-6" d="M242.29,87.52c58.87,30.64,18.37,133.07-45.13,121.74-83.18-28.24-35.75-157.57,45.13-121.74Z"/>
                <path class="cls-5" d="M187.25,122.67c-20.62.93-21.62,38.74-4.33,44.31,28.28,6.84,28.54-43.03,4.33-44.31Z"/>
              </g>
              <path class="cls-2" d="M239.68,120.86c-26.89-1.02-29.51,51.18,1.06,46.54,24.1.39,18.77-41.92-1.06-46.54Z"/>
              <path class="cls-3" d="M236.29,164.45c-25.74-4.86,7.37-29.09,15.47-15.6.52,8.55-1.03,14.71-15.47,15.6Z"/>
              <path class="cls-3" d="M241.01,124.93c13.94,6.2-4.09,13.32-9.14,7.11-5.43-5.8,5.65-8.57,9.14-7.11Z"/>
            </g>
            <path class="cls-3" d="M184.24,163.01c5.34.93,13.08-.97,14.8-6.66,11.61-26.36-38.95,2.22-14.8,6.66Z"/>
            <path class="cls-3" d="M188.57,139.18c21.72-2.29-7.9-21.97-7.23-6.21,1.23,3.21,3.6,6.27,7.23,6.21Z"/>
          </g>
          <path class="cls-2" d="M202.86,182.56c8.12-.5,16.24-.99,24.36-1.49,3.2-.19,3.22-5.2,0-5-8.12.5-16.24.99-24.36,1.49-3.2.19-3.22,5.2,0,5h0Z"/>
        </g>
        <g>
          <g>
            <path class="cls-1" d="M310.74,62.09c-31.35,33.26-.32,38.76,26.2,54.07,17,10.12,44.75-53.16,57.04-64.44,7.83-8.58,13.19-21.78.61-27.27-66.49-41.78-43.18-21-83.85,37.64Z"/>
            <path class="cls-2" d="M308.97,60.32c-8.41,8.96-19.64,23.18-10.31,35.3,3.52,4.57,8.62,7.72,13.61,10.48,6.05,3.35,12.35,6.24,18.45,9.48,2.4,1.27,4.8,3.06,7.44,3.8,1.78.5,3.67.45,5.46.01,4.04-.98,7.53-3.82,10.46-6.63,3.92-3.77,7.27-8.12,10.45-12.51,3.56-4.91,6.85-10.01,10.08-15.14,5.76-9.17,11.04-18.76,17.52-27.46.14-.19.29-.38.43-.57.38-.51-.25.3.14-.18.29-.36.58-.72.87-1.08.51-.61,1.03-1.2,1.59-1.77,2.25-2.27,4.23-4.87,5.83-7.63,3.27-5.63,5.49-13.34,1.28-19.12-1.12-1.53-2.49-2.77-4.09-3.79-.81-.51-1.69-.88-2.51-1.34-1.06-.6-2.08-1.3-3.11-1.95-3.6-2.25-7.21-4.48-10.85-6.67-5.43-3.27-10.91-6.5-16.64-9.23-6.18-2.95-14.08-6.35-20.74-2.81-2.69,1.43-4.71,3.87-6.38,6.36-2.11,3.16-3.77,6.63-5.41,10.05-5.36,11.15-10.76,22.21-17.29,32.74-2.14,3.45-4.37,6.83-6.68,10.17-.77,1.11-.21,2.78.9,3.42,1.24.73,2.65.22,3.42-.9,7.78-11.24,14.46-23.11,20.39-35.41,1.94-4.02,3.79-8.08,5.84-12.05.8-1.55,1.64-3.09,2.56-4.57.4-.65.83-1.28,1.27-1.9.09-.13.19-.25.28-.38.19-.27-.37.44.01-.01.22-.26.43-.52.66-.78.43-.48.88-.93,1.36-1.35.12-.1.24-.19.35-.3.44-.38-.33.21-.06.05.25-.15.48-.34.73-.5s.5-.3.76-.43c.11-.06.23-.1.34-.16.41-.23-.6.2-.05.02s1.11-.36,1.69-.48c.15-.03.3-.04.45-.08-.4.09-.51.05-.09.02.32-.02.63-.05.95-.05.69-.01,1.36.06,2.04.11.42.03-.64-.12.02,0,.16.03.33.05.49.08.41.08.82.17,1.23.26.84.2,1.68.45,2.5.73.93.31,1.85.66,2.76,1.03.12.05.69.29.44.18s.45.2.55.24c.56.25,1.11.5,1.67.76,2.37,1.11,4.69,2.33,6.98,3.58,6.36,3.49,12.55,7.3,18.72,11.13,1.9,1.18,3.77,2.55,5.76,3.57,1.51.77,2.86,1.47,4.03,2.69.78.82,1.41,1.93,1.71,2.93.1.33.18.67.25,1.01.1.49.05.23.03.11.02.17.04.35.05.53.05.72.04,1.44-.03,2.15-.46,5.22-4.32,10.68-8.15,14.66-2.77,2.88-5.03,6.29-7.23,9.61-2.91,4.4-5.65,8.91-8.41,13.4-3.11,5.05-6.22,10.11-9.46,15.07-1.58,2.41-3.18,4.8-4.84,7.16-.81,1.15-1.64,2.29-2.48,3.42-.9,1.21-1.33,1.77-2.24,2.91-1.55,1.94-3.17,3.84-4.91,5.62-.78.8-1.58,1.58-2.41,2.33-.37.33-.74.65-1.12.97-.2.16-.39.32-.59.48-.28.22.34-.26.06-.05-.12.09-.24.18-.37.27-.75.55-1.52,1.06-2.33,1.51-.35.2-.71.37-1.07.55-.5.24-.18.08-.11.05-.21.08-.42.16-.63.23-.34.12-.69.22-1.04.3-.18.04-.37.07-.55.11-.53.13.58-.01-.08.01-.34.01-.67.04-1,.03-.15,0-.31-.03-.46-.03-.39.01.23.03.27.04-.13-.03-.26-.04-.39-.07-.33-.08-.64-.17-.96-.27-.34-.1-.33-.16.03.03-.18-.1-.38-.18-.56-.28-1.43-.75-2.82-1.6-4.24-2.36-3.07-1.65-6.18-3.22-9.3-4.78-5.52-2.76-11.16-5.45-16.27-8.96-1.98-1.36-3.72-2.72-5.48-4.73-.19-.22-.38-.44-.56-.67-.06-.07-.28-.38,0,0-.08-.11-.17-.23-.25-.34-.32-.46-.63-.93-.9-1.41-.14-.24-.27-.48-.39-.73-.07-.14-.38-.86-.17-.34-.21-.5-.38-1.02-.52-1.55-.07-.26-.13-.53-.19-.8-.03-.16-.15-.95-.08-.36-.07-.57-.1-1.14-.1-1.71s.04-1.2.12-1.79c-.06.47.05-.25.08-.38.07-.36.15-.72.24-1.08.76-3.02,2.14-5.59,3.89-8.29,2.35-3.62,5.18-6.89,8.12-10.04,2.2-2.34-1.33-5.89-3.54-3.54Z"/>
          </g>
          <path class="cls-7" d="M377.5,60.52c-9.44-2.98-10.12-16.29-7.02-24.34-29.06,89.73-70.49,14.4-24.23,17"/>
        </g>
      </g>
    </g>
  </g>
</svg>