<?xml version="1.0" encoding="UTF-8"?>
<svg id="Layer_2" data-name="Layer 2" xmlns="http://www.w3.org/2000/svg" viewBox="0 0 296.51 426.32">
  <defs>
    <style>
      .cls-1, .cls-2 {
        stroke: #231f20;
      }

      .cls-1, .cls-2, .cls-3 {
        stroke-miterlimit: 10;
        stroke-width: 4.6px;
      }

      .cls-1, .cls-4 {
        fill: #231f20;
      }

      .cls-2 {
        fill: #fddfcd;
      }

      .cls-3 {
        fill: none;
        stroke: #fff;
      }

      .cls-5 {
        fill: #00b1dc;
      }

      .cls-5, .cls-6, .cls-7, .cls-4 {
        stroke-width: 0px;
      }

      .cls-6 {
        fill: #c67161;
      }

      .cls-7 {
        fill: #fff;
      }
    </style>
  </defs>
  <g id="footer">
    <g>
      <g>
        <path class="cls-4" d="M168.68,305.11c.07,12.83.51,25.67.87,38.5.41,14.54.84,29.09.96,43.64.05,6.7.06,13.41-.18,20.11-.12,3.22,4.88,3.21,5,0,.46-12.82.17-25.67-.11-38.48-.32-14.55-.8-29.09-1.17-43.64-.17-6.7-.33-13.41-.36-20.12-.02-3.22-5.02-3.22-5,0h0Z"/>
        <path class="cls-4" d="M171.77,408.49c12.12-2.48,23.89-8.74,36.16-7.14,20.41,5.72-7.91,28.87-36.16,7.14Z"/>
      </g>
      <g>
        <path class="cls-2" d="M275.67,112.03c-8.88-7.89,2.62-23.89,13.14-19.16,13.05,9.36-.03,28.49-13.14,19.16Z"/>
        <g>
          <path class="cls-5" d="M73.05,147.98c-1.97,8.8-1.13,17.81-3.11,26.61,7.42,2.43,17.27,3.55,22.56,9.5-6.26,22.22-15.47,44.49-18.55,67.86,36.18-2.62,72.46-3.9,108.73-3.86-7-22.57-11.96-45.78-14.81-69.24,15.78-6.32,31.55-12.64,47.33-18.96-4.72-8.33-9.45-16.65-14.17-24.98-15.34,7.63-29.92,17.74-46.58,22.18-27.08,4.99-55.24-2.04-81.41-9.12Z"/>
          <path class="cls-4" d="M70.64,147.31c-1.91,8.77-1.2,17.85-3.11,26.61-.3,1.37.4,2.64,1.75,3.08,7.14,2.32,16.12,3,21.46,8.86l-.64-2.43c-5.01,17.71-11.65,34.95-15.8,52.91-1.19,5.16-2.14,10.36-2.84,15.61-.17,1.28,1.29,2.59,2.5,2.5,28.25-2.04,56.56-3.28,84.88-3.69,7.95-.12,15.9-.17,23.85-.16,1.58,0,2.89-1.6,2.41-3.16-5.39-17.44-9.59-35.23-12.53-53.25-.83-5.1-1.56-10.21-2.18-15.33l-1.84,2.41c15.78-6.32,31.55-12.64,47.33-18.96,1.49-.6,2.36-2.14,1.49-3.67-4.72-8.33-9.45-16.65-14.17-24.98-.7-1.23-2.22-1.49-3.42-.9-14.78,7.37-28.68,17-44.71,21.58-4.08,1.17-8.52,1.47-12.75,1.73s-8.77.27-13.16.07c-8.86-.41-17.64-1.71-26.33-3.45-9.8-1.97-19.48-4.5-29.12-7.11-3.11-.84-4.44,3.98-1.33,4.82,17.55,4.74,35.3,9.26,53.49,10.55,9.07.64,18.18.38,27.16-1.07,4.24-.68,8.35-2.21,12.31-3.83s7.81-3.41,11.61-5.36c8.54-4.37,16.76-9.33,25.35-13.61l-3.42-.9c4.72,8.33,9.45,16.65,14.17,24.98l1.49-3.67c-15.78,6.32-31.55,12.64-47.33,18.96-.93.37-1.98,1.26-1.84,2.41,2.25,18.42,5.72,36.68,10.49,54.61,1.37,5.13,2.84,10.23,4.41,15.29l2.41-3.16c-28.32-.03-56.65.74-84.93,2.33-7.94.45-15.87.96-23.8,1.53l2.5,2.5c1.81-13.55,5.75-26.73,9.89-39.73,2.07-6.51,4.22-12.99,6.22-19.52.5-1.62.98-3.24,1.46-4.86.52-1.78,1.61-3.91.25-5.52-1.67-1.97-4.01-3.48-6.31-4.61-5.5-2.69-11.57-3.66-17.35-5.54l1.75,3.08c1.91-8.77,1.2-17.85,3.11-26.61.68-3.14-4.13-4.48-4.82-1.33Z"/>
        </g>
        <g>
          <path class="cls-4" d="M95.42,304.53c.12,14.32-.29,28.65-.76,42.96-.52,15.92-1.19,31.83-1.93,47.74-.35,7.53-.71,15.07-1.08,22.6-.16,3.22,4.84,3.21,5,0,.7-14.31,1.38-28.62,1.97-42.93.66-15.91,1.25-31.83,1.59-47.75.16-7.54.26-15.08.2-22.62-.03-3.22-5.03-3.22-5,0h0Z"/>
          <path class="cls-4" d="M94.84,419.18c-10.81-7.14-25-8.94-37.96-8.81-9.7-1.49-20.5,9.78-7.54,14.47,15.11,4.24,30.91-1.52,45.5-5.66Z"/>
        </g>
        <g>
          <path class="cls-6" d="M60.59,318.78c46.59-2.94,97.04-13.79,142.05,1.91-5.53-9.8-14.88-80-24.88-75.71-33.86,1.45-68.19.78-101.82,3.3-2.76,4.84-13.75,64.24-15.36,70.51Z"/>
          <path class="cls-4" d="M60.59,321.28c18.61-1.19,37.13-3.51,55.71-5.01,18.44-1.48,37.06-2.2,55.48-.02,10.27,1.22,20.42,3.45,30.19,6.84,2.14.74,3.83-1.87,2.82-3.67-.18-.31-.3-.66-.48-.97-.21-.37.24.63.09.21-.04-.1-.08-.2-.12-.31-.1-.26-.2-.52-.29-.78-.4-1.11-.74-2.24-1.07-3.37-.89-3.08-1.64-6.21-2.36-9.33-1.87-8.02-3.55-16.09-5.38-24.12s-3.63-15.73-6.13-23.4c-.97-2.99-2.05-5.98-3.45-8.81-.99-1.99-2.24-4.1-4.13-5.36-.82-.55-1.8-.9-2.8-.91-.5,0-.96.15-1.44.22-1.29.2-3.69.14-5.37.2-8.04.29-16.09.48-24.13.63-16.1.31-32.21.5-48.3,1.13-3.92.15-7.85.33-11.77.55-1.96.11-3.91.22-5.87.35-.98.06-1.95.13-2.93.2-1.14.08-2.48,0-3.59.3-2.08.57-2.63,4.06-3.12,5.86-1.83,6.74-3.22,13.6-4.65,20.43-3.07,14.67-5.74,29.42-8.9,44.06-.14.64-.28,1.28-.44,1.91-.79,3.12,4.03,4.45,4.82,1.33.75-2.96,1.29-5.98,1.89-8.97,1.07-5.36,2.13-10.72,3.2-16.07,2.35-11.81,4.67-23.64,7.41-35.37.51-2.18,1.03-4.36,1.63-6.52.21-.74.42-1.48.67-2.21.09-.25.19-.49.27-.75.12-.4-.37.64-.1.23.05-.08.09-.18.13-.26l-2.16,1.24c20.11-1.5,40.28-1.87,60.44-2.22,10.02-.18,20.05-.35,30.07-.66,2.54-.08,5.08-.16,7.62-.26,1.22-.05,2.46-.04,3.68-.15.22-.02.92-.06,1.16-.24-.13.09-.71.02-.1.06.28.02-.8-.08-.31-.03.09,0,.2.05.28.09.21.09-.59-.39-.25-.1.06.05.17.11.24.14.61.26-.37-.41.12.09.17.18.35.34.52.53.08.09.16.2.24.28.32.34-.34-.52-.01-.01.35.54.71,1.07,1.03,1.63.38.68.73,1.38,1.05,2.08.17.38.34.76.51,1.14-.2-.46-.04-.11.05.13.1.25.2.5.3.75,1.61,4.12,2.85,8.4,4.01,12.67,2.76,10.23,4.94,20.61,7.23,30.95,1,4.53,2,9.06,3.13,13.56.76,3.03,1.53,6.1,2.73,8.99.25.6.5,1.19.81,1.75l2.82-3.67c-17.65-6.12-36.41-8.28-55.02-8.39s-37.7,1.8-56.46,3.66c-10.4,1.03-20.8,2.06-31.23,2.73-1.35.09-2.5,1.09-2.5,2.5,0,1.29,1.15,2.59,2.5,2.5Z"/>
        </g>
        <path class="cls-4" d="M209.01,147.21c16.49-9.32,33.22-18.21,50.19-26.63,4.84-2.4,9.69-4.76,14.56-7.09,1.22-.58,1.54-2.32.9-3.42-.73-1.25-2.2-1.48-3.42-.9-17.09,8.17-33.96,16.78-50.59,25.85-4.74,2.59-9.46,5.21-14.16,7.87-2.8,1.58-.28,5.9,2.52,4.32h0Z"/>
        <path class="cls-4" d="M72.83,159.81c-17.59-7.33-34.88-15.37-51.84-24.06l.9,3.42c6.1-8.4,10.72-17.81,13.73-27.75.93-3.09-3.89-4.41-4.82-1.33-2.89,9.54-7.37,18.49-13.22,26.55-.76,1.05-.22,2.85.9,3.42,17.35,8.89,35.04,17.07,53.04,24.56,1.25.52,2.75-.56,3.08-1.75.4-1.44-.49-2.55-1.75-3.08h0Z"/>
        <g>
          <g>
            <g>
              <g>
                <path class="cls-2" d="M176.55,27.07c56.89,34.17,10.24,133.94-52.46,118.77-33.72-12.73-51.24-60.67-35.06-92.63,16.48-26.19,59.82-44.44,87.52-26.14Z"/>
                <path class="cls-1" d="M119.47,58.79c-20.64-.32-23.94,37.36-7.02,43.96,27.81,8.55,31.11-41.22,7.02-43.96Z"/>
              </g>
              <path class="cls-4" d="M171.91,60.18c-26.78-2.65-32.57,49.29-1.78,46.52,24.03,1.85,21.29-40.7,1.78-46.52Z"/>
              <path class="cls-7" d="M165.88,103.48c-8.1,0-10.77-9.41-8.55-11.31,6.48-5.76,14.59-9.84,23.05-6.17,0,0,1.89.65,1.89,2.86,0,8.56-1.92,14.62-16.39,14.62Z"/>
              <path class="cls-7" d="M172.99,64.33c13.53,7.03-4.89,13.04-9.56,6.54-5.07-6.12,6.16-8.21,9.56-6.54Z"/>
            </g>
            <path class="cls-7" d="M114.01,98.88c5.27,1.26,13.12-.17,15.18-5.74,13.19-25.61-39.02-.16-15.18,5.74Z"/>
            <path class="cls-7" d="M119.78,75.35c21.82-.97-6.55-22.41-6.84-6.63,1.03,3.27,3.21,6.48,6.84,6.63Z"/>
          </g>
          <path class="cls-4" d="M131.56,119.53c8.14,0,16.27,0,24.41,0,3.22,0,3.22-5,0-5-8.14,0-16.27,0-24.41,0-3.22,0-3.22,5,0,5h0Z"/>
        </g>
        <g>
          <g>
            <path class="cls-4" d="M7.2,73.79c-2.38,10.37-11.2,33.06,4.29,35.71,14.94,1.27,30.12,5.47,44.99,5.07,17.81-21.54,14.97-54.58,24.61-80.48,4.21-10.83,4.45-25.08-9.27-25.66C-5.25-6.55,23.98,4.42,7.2,73.79Z"/>
            <path class="cls-4" d="M4.79,73.12c-1.16,5-2.74,9.88-3.73,14.92s-1.85,11.17.19,16.24c1,2.47,2.62,4.58,4.93,5.95,3.27,1.95,7.09,1.88,10.75,2.34,9.67,1.21,19.23,3.22,28.94,4.1,2.43.22,4.88.37,7.32.41,1.09.02,2.21.07,3.29-.02,1.45-.12,2.1-1.13,2.92-2.18,2.34-3.02,4.37-6.25,6.07-9.66,3.45-6.92,5.7-14.35,7.4-21.87,3.41-15.1,4.69-30.72,9.54-45.48,1.01-3.08,2.25-6.05,2.93-9.23.63-2.94.98-6.02.69-9.02-.58-6.02-3.74-11.28-9.81-13.03-1.65-.47-3.35-.5-5.02-.82-1.77-.34-3.53-.68-5.3-1.02-3.23-.61-6.46-1.21-9.7-1.77-5.31-.93-10.64-1.78-15.99-2.37-6.22-.68-13.28-1.35-19.16,1.29-4.44,2-6.78,6.26-7.86,10.82-1.55,6.51-1.67,13.39-2.19,20.04-.84,10.61-2.01,20.33-4.08,30.74-.64,3.22-1.35,6.43-2.12,9.62s4.07,4.46,4.82,1.33c2.21-9.17,3.87-18.45,5.02-27.81.83-6.73,1.33-13.48,1.85-20.24.19-2.5.39-5.01.69-7.5.03-.29.07-.58.11-.86.03-.26-.09.58.03-.17.08-.53.16-1.07.25-1.6.17-.98.37-1.95.62-2.9.22-.82.5-1.62.78-2.42.2-.57-.29.59,0-.02.08-.17.15-.34.24-.5.17-.35.36-.7.57-1.03.18-.3.41-.57.59-.86-.49.81.15-.16.39-.41.26-.27.54-.51.81-.76.43-.39-.26.15-.06.05s.36-.26.55-.38c.3-.19.61-.37.93-.53.16-.08.34-.15.5-.24.27-.15-.61.21.12-.04.82-.29,1.64-.53,2.49-.71.45-.09.9-.16,1.35-.23-.92.15.04,0,.25-.02.3-.03.6-.06.9-.08,1.19-.09,2.39-.12,3.59-.1,7.14.08,13.23,1.13,20.1,2.29,4.86.82,9.71,1.72,14.55,2.65,1.44.28,2.89.6,4.34.84,1.33.22,2.44.2,3.73.57,1.75.5,3.02,1.27,4.21,2.77-.3-.38.17.25.18.27.11.17.22.34.32.51.23.38.43.78.61,1.19-.19-.45.11.31.11.33.08.24.16.48.23.72.14.49.26,1,.35,1.5.11.61.2,1.57.22,2.54.02,1.18-.04,2.36-.18,3.54-.5,4.5-2.64,9.31-4.03,13.87-3.44,11.33-4.97,23.13-7.12,34.74-2.08,11.23-4.67,22.69-10.46,32.67-1.37,2.36-2.9,4.62-4.62,6.72l1.77-.73c-7.88.18-15.7-.86-23.47-2.08-3.8-.6-7.59-1.23-11.4-1.78-1.95-.28-3.91-.55-5.87-.78-1.63-.19-3.34-.2-4.93-.64-.25-.07-.5-.14-.74-.23-.02,0-.78-.31-.32-.11-.43-.18-.84-.41-1.24-.66-.19-.12-.38-.24-.56-.38.43.32-.12-.12-.17-.16-.16-.15-.31-.29-.46-.45-.07-.07-.64-.76-.3-.31-.21-.28-.41-.58-.59-.89-.11-.19-.2-.38-.31-.57-.03-.06-.32-.72-.11-.2-.38-.91-.61-1.87-.79-2.83,0-.05-.11-.82-.05-.28-.03-.24-.05-.48-.07-.72-.04-.5-.06-.99-.07-1.49-.02-1.13.03-2.26.13-3.38.17-1.96.52-3.95.99-6.14.98-4.56,2.4-9.01,3.45-13.55.72-3.13-4.09-4.47-4.82-1.33Z"/>
          </g>
          <path class="cls-3" d="M68.12,48.45c-9.86.93-15.66-11.08-15.93-19.7,8.09,93.97-59.35,40.66-15.72,25.08"/>
        </g>
      </g>
    </g>
  </g>
</svg>