<?xml version="1.0" encoding="UTF-8"?>
<svg id="Layer_2" data-name="Layer 2" xmlns="http://www.w3.org/2000/svg" viewBox="0 0 65.99 61.69">
  <defs>
    <style>
      .cls-1 {
        fill: #0a0203;
      }

      .cls-1, .cls-2 {
        stroke: #231f20;
        stroke-miterlimit: 10;
      }

      .cls-2 {
        fill: #fff;
        stroke-width: 4.6px;
      }

      .cls-3 {
        fill: #a1cf6d;
      }

      .cls-3, .cls-4 {
        stroke-width: 0px;
      }

      .cls-4 {
        fill: #231f20;
      }
    </style>
  </defs>
  <g id="footer">
    <g>
      <g>
        <path class="cls-3" d="M28.45,5.31c-7.7-1.8-18.81,3.36-16.13,12.44l-.85,2.7c-11.88.37-12.43,21.53,1.2,22.17,3.41,0,1.07,5.38,3.95,7.2,0,0,1.47-.41,1.47-.41,1.41,9.17,14.17,13.02,20.73,6.86,8.09,5.08,15.43-6.17,16.34-13.56,11.76,8.91,10.93-18.66-1.86-13.16,6.37-5.56,4.16-15.6-5.18-13.28C54.23-1.6,24.6-1.15,27.32,12.49"/>
        <path class="cls-4" d="M29.12,2.9C19.73.81,6.79,7.24,9.91,18.42v-1.33c-.28.9-.57,1.8-.85,2.7l2.41-1.84C4.17,18.27-.3,24.93.02,31.87c.16,3.37,1.31,6.62,3.55,9.17,1.09,1.24,2.49,2.25,4.01,2.91.85.38,1.72.69,2.64.87.55.11,1.11.18,1.67.24.22.02.44.04.66.05.63.05.17.12-.08-.09-.16-.14-.23-.26-.37-.39.13.24.13.21,0-.08.05.13.09.26.12.4.03.14.06.29.09.43.03.15.05.31.07.46-.03-.23-.03-.25-.01-.06.15,1.09.24,2.18.63,3.21.5,1.32,1.5,2.84,2.96,3.24.92.25,1.92-.16,2.8-.41l-3.08-1.75c1.86,11.1,16.93,15.25,24.91,7.96l-3.03.39c10.35,6.26,18.92-6.81,20.1-15.72l-3.76,2.16c2.07,1.55,4.82,2.72,7.41,1.81,2.28-.81,3.69-2.92,4.27-5.19,1.19-4.69-.22-10.62-4.22-13.59-2.54-1.88-5.87-1.94-8.72-.75l2.43,4.18c3.28-2.94,5.4-7.87,3.87-12.24-1.73-4.94-6.75-6.33-11.48-5.22l3.08,3.08c1.12-3.37,1.35-7.07-.25-10.32-1.33-2.71-3.83-4.55-6.6-5.6C38.54-.94,31.72-.1,27.64,3.77c-2.6,2.47-3.38,5.93-2.73,9.38.25,1.33,1.85,2.08,3.08,1.75,1.39-.38,2-1.74,1.75-3.08-.14-.74-.03.24-.07-.48-.01-.24-.02-.48-.02-.73,0-.2.16-1.11,0-.37.06-.27.1-.54.18-.81.05-.18.41-.99.08-.31.09-.19.18-.38.29-.57.13-.23.28-.45.43-.67.08-.13.3-.32-.1.13.1-.12.2-.25.32-.36.17-.17.34-.34.52-.51.1-.09.21-.18.31-.26-.05.04-.47.34-.12.09.46-.32.93-.62,1.43-.87.11-.06.83-.37.48-.23s.4-.14.52-.18c.56-.19,1.13-.34,1.71-.46.24-.05.47-.09.71-.12-.74.12.26-.02.42-.03.58-.04,1.15-.06,1.73-.03.27,0,.55.03.82.05.15.01.3.03.45.05.39.04-.63-.12-.04,0,.56.11,1.11.22,1.66.38.26.08.51.17.76.25.67.23-.22-.15.29.12.49.25.97.49,1.43.8.12.08.23.16.35.25.3.21-.45-.4-.04-.02.19.17.38.33.56.52s.35.37.51.56c.28.33-.04-.05-.08-.1.1.14.2.28.29.42.17.27.31.55.46.83.08.15.19.53,0-.03.06.17.12.34.18.51.09.3.16.6.23.9.03.12.05.25.07.38-.1-.64,0-.03,0,.12.01.42.03.83.01,1.25,0,.2-.13,1.15-.05.67-.14.91-.39,1.81-.68,2.68-.63,1.89,1.32,3.49,3.08,3.08.84-.2,1.49-.27,2.4-.24.42.02.03-.02.26.02.17.03.33.07.49.11.2.05.39.11.58.18-.24-.09-.12-.06.04.03s.78.49.68.41c-.09-.08.39.4.52.56-.3-.36.23.41.31.57.11.2.09.23,0,0,.06.17.12.35.17.52s.18,1.04.14.56c.03.35.04.7.03,1.05,0,.16-.02.32-.03.48-.03.27.07-.27-.04.18-.08.37-.17.74-.29,1.1-.42,1.27-1.31,2.5-2.53,3.58-1.77,1.59.1,5.15,2.43,4.18.52-.22,1.06-.41,1.61-.54.19-.04.94-.12.27-.07.27-.02.53-.04.8-.03.1,0,.84.09.42.02s.29.08.38.1c.18.05.35.11.52.17-.7-.25.05.05.23.16.18.11.34.22.51.34-.44-.31-.11-.09.08.11.13.13.25.26.38.39.49.5-.02-.09.15.18.23.37.47.72.67,1.11.1.2.19.4.29.6-.25-.55,0,.03.08.26.15.43.27.86.37,1.3.04.19.08.39.12.58.15.71,0-.38.05.34.07.88.05,1.73-.02,2.62.06-.8-.1.42-.17.69-.05.19-.12.37-.17.56-.16.59.21-.29-.04.11-.09.15-.18.32-.26.47-.23.46-.07.1.02.02-.1.09-.19.22-.29.32-.04.04-.14.11-.18.17-.23.35.28-.47.12-.1-.04.1-.72.32-.23.15s-.19.06-.29.05c-.26-.02.65,0-.05-.03s.22.13-.11,0c-.24-.09-.52-.14-.77-.21-.12-.03-.44-.18.11.06-.14-.06-.29-.13-.42-.2-.61-.33-1.18-.69-1.73-1.1-1.72-1.28-3.55.53-3.76,2.16.04-.34-.04.17-.06.28-.05.23-.09.46-.14.69-.1.43-.21.86-.34,1.28-.26.85-.56,1.68-.92,2.44-.81,1.72-1.8,3.39-3.08,4.78-1.11,1.2-2.39,2.23-3.74,2.64-1.51.46-2.74.24-4.31-.7-.98-.59-2.21-.35-3.03.39-5.31,4.85-15.32,1.58-16.55-5.76-.22-1.33-1.88-2.08-3.08-1.75-.49.14-.98.27-1.47.41l1.93.25c.07.05-.03.04-.16-.27-.16-.38.1.32-.03-.07-.07-.2-.12-.39-.16-.6-.04-.16-.17-.96-.12-.57-.08-.54-.13-1.09-.21-1.64-.26-1.71-1.02-3.31-2.69-4.02-.85-.36-1.73-.33-2.63-.44.4.05-.44-.08-.58-.11-.39-.09-.77-.2-1.15-.32-.15-.05-.29-.1-.44-.16.41.16.05.02-.03-.02-.3-.15-.59-.3-.88-.48-.1-.06-.88-.62-.47-.29-.25-.2-.49-.41-.72-.64s-.44-.46-.65-.7c-.07-.07-.29-.37,0,0-.08-.11-.17-.23-.24-.34-.34-.54-.66-1.08-.93-1.66-.29-.61.11.3-.03-.09-.05-.13-.1-.27-.14-.4-.1-.3-.2-.61-.28-.92-.07-.28-.13-.55-.19-.83-.03-.14-.05-.28-.07-.42.1.6-.01-.1-.02-.18-.04-.57-.07-1.14-.05-1.71.01-.32.04-.64.06-.96,0-.08.07-.53.02-.19s.06-.33.08-.4c.12-.58.27-1.16.47-1.72.06-.18.35-.84.13-.36.14-.31.29-.61.46-.91s.35-.57.54-.85c.26-.38.03-.05-.03.03.13-.16.26-.31.39-.45.23-.25.47-.47.71-.7.1-.09.2-.17.31-.25-.47.37.07-.03.14-.08.29-.17.58-.34.88-.5.1-.05.44-.18-.03,0,.16-.06.33-.12.49-.18.34-.11.69-.19,1.04-.26.13-.03.62-.07.11-.02.23-.02.46-.04.69-.05,1.14-.05,2.07-.75,2.41-1.84.23-.74.48-1.48.7-2.23.33-1.1-.05-2.25-.14-3.1-.12-1.2-.05-1.83.42-2.97-.15.36.18-.34.19-.36.12-.23.26-.45.41-.67.16-.25.39-.53.78-.93,1.42-1.44,3.21-2.33,5.24-2.89s4.32-.69,6.31-.24c3.13.7,4.47-4.12,1.33-4.82h0Z"/>
      </g>
      <g>
        <path class="cls-2" d="M18.17,19.61c-8.07,20.11,8.7,28.83,11.13,5.22-3.45-2.46-7.13-4.52-11.13-5.22Z"/>
        <path class="cls-1" d="M26.43,44.49c-1.78.46-.63,2.49.19,3.66,5.62,5.96,8.16-2.42,13.68-4.16,1.22-2.2-11.96.8-13.88.49Z"/>
        <path class="cls-3" d="M25.64,28.94c-.77,6.16-6.9-.58-1.7-2.04.83.41,1.87.98,1.7,2.04Z"/>
      </g>
      <g>
        <path class="cls-2" d="M45.3,20.58c8.06,20.08-8.56,28.65-11.13,5.22,3.45-2.46,7.13-4.52,11.13-5.22Z"/>
        <path class="cls-3" d="M37.83,29.91c.77,6.16,6.9-.58,1.7-2.04-.83.41-1.87.98-1.7,2.04Z"/>
      </g>
    </g>
  </g>
</svg>