<?xml version="1.0" encoding="UTF-8"?>
<svg id="Layer_2" data-name="Layer 2" xmlns="http://www.w3.org/2000/svg" viewBox="0 0 298.01 189.19">
  <defs>
    <style>
      .cls-1 {
        stroke: #231f20;
        stroke-miterlimit: 10;
        stroke-width: 4.21px;
      }

      .cls-1, .cls-2 {
        fill: #231f20;
      }

      .cls-3 {
        fill: #c67161;
      }

      .cls-3, .cls-2 {
        stroke-width: 0px;
      }
    </style>
  </defs>
  <g id="Layer_1-2" data-name="Layer 1">
    <g>
      <g>
        <path class="cls-3" d="M284.45,42.24c20.43-.34,6.52-16.55,5.51-28.95-13.12-4.89-27.86-15.17-44.46-8.84-58.31,29.17-46.88,25.28-110.62,33.56-18.88,5.1-91.03,46.92-128.31,90.39-13.69,15.35,10.96,44.06,16.35,58.27,10.28.52,26.32-7.92,11.24-8.89-36.38-47.37,44.7-85.32,56.32-22.13,0,0,146.04-84.09,146.04-84.09-38.04-41.31,28.23-92.99,47.95-29.31Z"/>
        <path class="cls-2" d="M284.45,44.74c5.37-.12,12.3-1.45,13.38-7.75.88-5.13-1.57-10.41-3.19-15.15-.94-2.75-1.96-6.02-2.18-8.55-.11-1.2-.72-1.99-1.84-2.41-7.48-2.81-14.52-6.74-22.21-9.03-8.49-2.53-17.73-2.79-25.81,1.25-12.12,6.07-24.14,12.42-36.5,17.99-1.02.46-2.05.92-3.08,1.36-.26.11-.51.22-.77.33.37-.15-.16.07-.27.11-.53.22-1.07.44-1.6.65-1.86.74-3.73,1.44-5.62,2.08-3.69,1.25-7.45,2.25-11.25,3.06-10.74,2.28-21.45,3.37-32.31,4.74-4.1.52-8.21,1.03-12.31,1.56-2.55.33-4.95.61-7.37,1.46-3.78,1.33-7.45,2.98-11.07,4.71-10.68,5.09-20.98,11.01-31.05,17.2-12.82,7.88-25.29,16.35-37.32,25.41s-24.52,19.38-35.61,30.38c-2.66,2.64-5.27,5.34-7.8,8.12-2.18,2.39-4.65,4.81-6.25,7.65-2.91,5.15-2.86,11.21-1.58,16.84,2.85,12.53,10.65,23.38,16.69,34.49.59,1.09,1.17,2.18,1.71,3.3.27.55.52,1.09.77,1.65.05.1.28.66.14.3.12.29.23.58.34.87.42,1.08,1.22,1.79,2.41,1.84,3.21.13,6.48-.42,9.55-1.31,2.64-.77,5.4-1.81,7.62-3.46,1.89-1.4,3.65-3.73,2.21-6.12-1.56-2.59-5.49-2.81-8.15-3l2.16,1.24c-3.03-3.96-5.68-8.43-7.2-12.87-.7-2.04-1.22-4.13-1.53-6.26-.07-.49.02.21-.03-.27-.03-.23-.05-.46-.07-.7-.05-.54-.09-1.07-.11-1.61-.04-.97-.03-1.95.02-2.92.02-.44.06-.88.1-1.32.02-.22.05-.43.07-.65-.06.52.03-.23.06-.41.15-.92.34-1.83.58-2.72s.51-1.76.82-2.61c.14-.39.3-.78.46-1.17-.19.45.28-.61.39-.83.78-1.61,1.7-3.16,2.75-4.61.14-.19.28-.39.43-.58-.26.35,0,0,.12-.14.28-.35.56-.69.86-1.03.59-.67,1.2-1.32,1.84-1.94s1.3-1.22,1.99-1.79c.16-.13.32-.26.48-.39.48-.39-.12.08.23-.18s.72-.53,1.09-.79c1.47-1.02,3.02-1.93,4.62-2.71.4-.2.81-.38,1.22-.56.17-.08.57-.24.16-.07.22-.09.45-.18.67-.27.83-.32,1.68-.62,2.53-.87s1.72-.48,2.59-.67c.4-.09.81-.17,1.21-.24.24-.04.47-.08.71-.12.12-.02.78-.11.48-.07-.31.04.29-.03.38-.04.2-.02.41-.04.61-.06.48-.04.96-.08,1.44-.1.89-.04,1.79-.05,2.68-.01s1.79.11,2.67.22c.13.02-.34-.06.16.03.2.04.41.07.61.1.48.08.95.18,1.43.29,3.79.86,6.35,1.98,9.6,4.25.29.2.98.71,1.01.74.04.03.7.58.98.82.77.66,1.5,1.36,2.2,2.1,1.6,1.68,2.51,2.86,3.75,4.79,2.76,4.3,4.49,8.77,5.75,13.72.37,1.44.68,2.89.95,4.35.3,1.59,2.38,2.27,3.67,1.49,4.77-2.88,9.67-5.57,14.5-8.35,11.65-6.71,23.3-13.42,34.95-20.13,14.05-8.09,28.11-16.19,42.16-24.28,12.18-7.01,24.35-14.02,36.53-21.03,5.87-3.38,11.89-6.59,17.65-10.16.08-.05.16-.09.24-.14,1.45-.83,1.58-2.75.51-3.93-3.21-3.51-5.93-7.42-7.9-11.76-1.51-3.32-2.62-7.69-2.86-11.15-.49-7.19,1.28-13.72,5.3-19.68,3.39-5.04,8.8-9.38,14.51-11.21.73-.23,1.47-.44,2.22-.61.41-.09.82-.17,1.23-.25.14-.02.27-.05.41-.07.71-.12-.06,0,.37-.05,1.6-.17,3.2-.21,4.8-.07.21.02.42.04.63.06.71.08-.53-.09.18.02.35.06.7.11,1.05.18.85.17,1.69.38,2.51.65,1.77.56,2.6.93,4.35,1.94,3.65,2.11,6.85,5.29,9.35,8.85,3.46,4.94,5.85,10.52,7.65,16.26.96,3.06,5.78,1.75,4.82-1.33-3.15-10.08-8.16-20.16-16.88-26.52-6.22-4.54-14.06-6.18-21.57-4.54-15.22,3.31-25.78,18.49-25.97,33.65-.14,11.02,4.99,21.17,12.3,29.16l.51-3.93c-4.83,2.78-9.67,5.57-14.5,8.35-11.65,6.71-23.3,13.42-34.95,20.13-14.05,8.09-28.11,16.19-42.16,24.28-12.18,7.01-24.35,14.02-36.53,21.04-3.99,2.3-7.99,4.6-11.98,6.9-1.87,1.08-3.88,2.04-5.66,3.26-.08.05-.16.09-.24.14l3.67,1.49c-2.16-11.59-7.38-23.17-17.48-29.88-7.79-5.17-17.62-6.39-26.59-4.05-8.8,2.29-16.75,7.9-21.6,15.61-5.36,8.5-6.13,19.02-2.87,28.44.99,2.87,2.29,5.64,3.82,8.26.8,1.37,1.67,2.7,2.59,3.99.51.72,1.02,1.58,1.64,2.2.96.96,2.5.73,3.75.94.37.06.74.14,1.1.23.11.03,1.01.35.59.16.12.06.25.12.36.19.34.21-.1-.02-.09-.09,0-.01.31.37,0-.04-.11-.14-.13,0-.21-.39-.07-.33-.05-.52,0-.84-.06.31.14-.08.12-.21.01.09-.38.58-.15.28.22-.28-.31.28-.39.36-.05.05-.39.32-.17.15s-.33.22-.32.21c-2.73,1.76-5.91,2.73-9.12,3.33-1.64.3-3.3.42-4.96.36l2.41,1.84c-1.96-5.09-4.84-9.8-7.56-14.5-3.26-5.62-6.53-11.27-9.12-17.24-2.24-5.16-4.07-10.76-3.58-16.35.19-2.18.96-4.49,2.29-6.48,1.67-2.5,4.2-4.95,6.34-7.25,10.37-11.13,21.86-21.19,33.78-30.61,11.85-9.35,24.22-18.05,36.93-26.19,10.55-6.76,21.36-13.18,32.51-18.91,2.19-1.13,4.4-2.22,6.63-3.28.97-.46,1.95-.91,2.93-1.35.44-.2.89-.39,1.33-.59.23-.1.46-.2.69-.3.39-.17-.25.1.27-.11,1.55-.64,3.1-1.26,4.69-1.79,2.55-.86,5.13-1.03,7.83-1.37,12.53-1.6,25.13-2.91,37.58-5.04,7.83-1.34,15.46-3.32,22.84-6.27,10.45-4.18,20.47-9.42,30.51-14.46,3.77-1.9,7.54-3.79,11.32-5.69,2.03-1.02,3.97-1.93,6.18-2.48,1.99-.49,4.01-.75,6.06-.79,8.07-.15,15.72,3.02,22.96,6.25,3.49,1.56,6.97,3.15,10.54,4.5l-1.84-2.41c.46,5.19,2.47,9.98,4.08,14.88.36,1.09.69,2.18.97,3.29.13.54.25,1.07.35,1.62.03.13.11.72.06.29.03.27.06.54.08.81.03.48.02.95,0,1.43,0,.22-.09.61,0,.16-.04.23-.1.46-.15.69-.02.09-.21.64-.1.35.11-.27-.15.29-.22.41-.1.17-.21.34-.33.49.3-.39-.08.05-.21.18-.55.51-1.37.93-2.44,1.23-1.66.47-3.38.59-5.1.63-3.21.07-3.22,5.07,0,5Z"/>
      </g>
      <path class="cls-2" d="M186.67,43.55c-40.79,20.37-83.5,46.22-126.9,60.48,32.59-36.73,73.75-61.2,126.9-60.48Z"/>
      <path class="cls-1" d="M268.35,55.62c-8.24,8.78-24.29,8.01-32.11-1.33-19.06-43.59,57.16-40.33,32.11,1.33Z"/>
      <path class="cls-1" d="M79.18,160.83c-3.57,13.51-20.38,21.58-33.51,16.37-43.52-33.97,36.08-72.72,33.51-16.37Z"/>
    </g>
  </g>
</svg>